<svg width="752" height="142" viewBox="0 0 752 142" fill="none" xmlns="http://www.w3.org/2000/svg">
<path d="M206.455 86.13C205.978 87.3767 205.153 88 203.98 88H193.585C193.255 88 192.962 87.89 192.705 87.67C192.485 87.4133 192.375 87.12 192.375 86.79L192.43 86.46L204.42 51.315C204.567 50.8383 204.842 50.4167 205.245 50.05C205.648 49.6833 206.198 49.5 206.895 49.5H222.185C222.882 49.5 223.432 49.6833 223.835 50.05C224.238 50.4167 224.513 50.8383 224.66 51.315L236.65 86.46L236.705 86.79C236.705 87.12 236.577 87.4133 236.32 87.67C236.1 87.89 235.825 88 235.495 88H225.1C223.927 88 223.102 87.3767 222.625 86.13L221.25 82.28H207.83L206.455 86.13ZM214.54 60.115L210.635 71.555H218.445L214.54 60.115ZM261.104 88.55C254.944 88.55 250.049 87.2117 246.419 84.535C242.825 81.8583 241.029 77.6783 241.029 71.995V50.985C241.029 50.5817 241.175 50.2333 241.469 49.94C241.762 49.6467 242.11 49.5 242.514 49.5H254.009C254.412 49.5 254.76 49.6467 255.054 49.94C255.347 50.2333 255.494 50.5817 255.494 50.985V72.875C255.494 74.3783 255.989 75.5333 256.979 76.34C258.005 77.1467 259.38 77.55 261.104 77.55C262.827 77.55 264.184 77.1467 265.174 76.34C266.2 75.5333 266.714 74.3783 266.714 72.875V50.985C266.714 50.5817 266.86 50.2333 267.154 49.94C267.447 49.6467 267.795 49.5 268.199 49.5H279.694C280.097 49.5 280.445 49.6467 280.739 49.94C281.032 50.2333 281.179 50.5817 281.179 50.985V71.995C281.179 77.6783 279.364 81.8583 275.734 84.535C272.14 87.2117 267.264 88.55 261.104 88.55ZM326.807 49.5C327.21 49.5 327.559 49.6467 327.852 49.94C328.145 50.2333 328.292 50.5817 328.292 50.985V59.84C328.292 60.2433 328.145 60.5917 327.852 60.885C327.559 61.1783 327.21 61.325 326.807 61.325H314.982V86.515C314.982 86.9183 314.835 87.2667 314.542 87.56C314.249 87.8533 313.9 88 313.497 88H302.167C301.764 88 301.415 87.8533 301.122 87.56C300.829 87.2667 300.682 86.9183 300.682 86.515V61.325H288.857C288.454 61.325 288.105 61.1783 287.812 60.885C287.519 60.5917 287.372 60.2433 287.372 59.84V50.985C287.372 50.5817 287.519 50.2333 287.812 49.94C288.105 49.6467 288.454 49.5 288.857 49.5H326.807ZM375.021 72.105C375.021 77.715 373.151 81.8583 369.411 84.535C365.707 87.2117 360.757 88.55 354.561 88.55C348.364 88.55 343.396 87.2117 339.656 84.535C335.952 81.8583 334.101 77.6783 334.101 71.995V65.505C334.101 61.765 334.981 58.6667 336.741 56.21C338.537 53.7167 340.976 51.8833 344.056 50.71C347.136 49.5367 350.637 48.95 354.561 48.95C358.484 48.95 361.967 49.5367 365.011 50.71C368.091 51.8833 370.529 53.6983 372.326 56.155C374.122 58.6117 375.021 61.6917 375.021 65.395V72.105ZM348.951 73.15C348.951 74.6533 349.446 75.8083 350.436 76.615C351.462 77.4217 352.837 77.825 354.561 77.825C356.284 77.825 357.641 77.4217 358.631 76.615C359.657 75.7717 360.171 74.5983 360.171 73.095V64.405C360.171 62.9017 359.657 61.7467 358.631 60.94C357.641 60.0967 356.284 59.675 354.561 59.675C352.837 59.675 351.462 60.0783 350.436 60.885C349.446 61.6917 348.951 62.8467 348.951 64.35V73.15ZM408.494 50.985C409.044 49.995 409.832 49.5 410.859 49.5H420.924C421.327 49.5 421.676 49.6467 421.969 49.94C422.262 50.2333 422.409 50.5817 422.409 50.985V86.515C422.409 86.9183 422.262 87.2667 421.969 87.56C421.676 87.8533 421.327 88 420.924 88H410.969C410.566 88 410.217 87.8533 409.924 87.56C409.631 87.2667 409.484 86.9183 409.484 86.515V69.465L405.469 77.385C405.359 77.6417 405.102 77.935 404.699 78.265C404.296 78.595 403.782 78.76 403.159 78.76H399.419C398.796 78.76 398.282 78.595 397.879 78.265C397.476 77.935 397.219 77.6417 397.109 77.385L393.094 69.465V86.515C393.094 86.9183 392.947 87.2667 392.654 87.56C392.361 87.8533 392.012 88 391.609 88H381.654C381.251 88 380.902 87.8533 380.609 87.56C380.316 87.2667 380.169 86.9183 380.169 86.515V50.985C380.169 50.5817 380.316 50.2333 380.609 49.94C380.902 49.6467 381.251 49.5 381.654 49.5H391.719C392.746 49.5 393.534 49.995 394.084 50.985L401.289 64.185L408.494 50.985ZM440.098 86.13C439.621 87.3767 438.796 88 437.623 88H427.228C426.898 88 426.604 87.89 426.348 87.67C426.128 87.4133 426.018 87.12 426.018 86.79L426.073 86.46L438.063 51.315C438.209 50.8383 438.484 50.4167 438.888 50.05C439.291 49.6833 439.841 49.5 440.538 49.5H455.828C456.524 49.5 457.074 49.6833 457.478 50.05C457.881 50.4167 458.156 50.8383 458.303 51.315L470.293 86.46L470.348 86.79C470.348 87.12 470.219 87.4133 469.963 87.67C469.743 87.89 469.468 88 469.138 88H458.743C457.569 88 456.744 87.3767 456.268 86.13L454.893 82.28H441.473L440.098 86.13ZM448.183 60.115L444.278 71.555H452.088L448.183 60.115ZM513.721 49.5C514.124 49.5 514.473 49.6467 514.766 49.94C515.059 50.2333 515.206 50.5817 515.206 50.985V59.84C515.206 60.2433 515.059 60.5917 514.766 60.885C514.473 61.1783 514.124 61.325 513.721 61.325H501.896V86.515C501.896 86.9183 501.749 87.2667 501.456 87.56C501.163 87.8533 500.814 88 500.411 88H489.081C488.678 88 488.329 87.8533 488.036 87.56C487.743 87.2667 487.596 86.9183 487.596 86.515V61.325H475.771C475.368 61.325 475.019 61.1783 474.726 60.885C474.433 60.5917 474.286 60.2433 474.286 59.84V50.985C474.286 50.5817 474.433 50.2333 474.726 49.94C475.019 49.6467 475.368 49.5 475.771 49.5H513.721ZM533.555 86.13C533.078 87.3767 532.253 88 531.08 88H520.685C520.355 88 520.061 87.89 519.805 87.67C519.585 87.4133 519.475 87.12 519.475 86.79L519.53 86.46L531.52 51.315C531.666 50.8383 531.941 50.4167 532.345 50.05C532.748 49.6833 533.298 49.5 533.995 49.5H549.285C549.981 49.5 550.531 49.6833 550.935 50.05C551.338 50.4167 551.613 50.8383 551.76 51.315L563.75 86.46L563.805 86.79C563.805 87.12 563.676 87.4133 563.42 87.67C563.2 87.89 562.925 88 562.595 88H552.2C551.026 88 550.201 87.3767 549.725 86.13L548.35 82.28H534.93L533.555 86.13ZM541.64 60.115L537.735 71.555H545.545L541.64 60.115ZM610.038 86.295C610.111 86.4417 610.148 86.6067 610.148 86.79C610.148 87.12 610.02 87.4133 609.763 87.67C609.543 87.89 609.268 88 608.938 88H596.453C595.94 88 595.463 87.8717 595.023 87.615C594.62 87.3583 594.326 87.0283 594.143 86.625L589.303 75.735H584.683V86.515C584.683 86.9183 584.536 87.2667 584.243 87.56C583.95 87.8533 583.601 88 583.198 88H571.318C570.915 88 570.566 87.8533 570.273 87.56C569.98 87.2667 569.833 86.9183 569.833 86.515V50.985C569.833 50.5817 569.98 50.2333 570.273 49.94C570.566 49.6467 570.915 49.5 571.318 49.5H592.713C596.013 49.5 598.891 50.0317 601.348 51.095C603.841 52.1583 605.748 53.6983 607.068 55.715C608.388 57.7317 609.048 60.0967 609.048 62.81C609.048 67.7967 607.123 71.4083 603.273 73.645L610.038 86.295ZM591.558 65.56C592.365 65.56 592.988 65.3033 593.428 64.79C593.868 64.24 594.088 63.5617 594.088 62.755C594.088 61.9483 593.868 61.2517 593.428 60.665C593.025 60.0417 592.401 59.73 591.558 59.73H584.683V65.56H591.558ZM642.412 76.725H652.367C652.77 76.725 653.118 76.8717 653.412 77.165C653.705 77.4583 653.852 77.8067 653.852 78.21V86.515C653.852 86.9183 653.705 87.2667 653.412 87.56C653.118 87.8533 652.77 88 652.367 88H617.497C617.093 88 616.745 87.8533 616.452 87.56C616.158 87.2667 616.012 86.9183 616.012 86.515V78.21C616.012 77.8067 616.158 77.4583 616.452 77.165C616.745 76.8717 617.093 76.725 617.497 76.725H627.562V60.775H617.497C617.093 60.775 616.745 60.6283 616.452 60.335C616.158 60.0417 616.012 59.6933 616.012 59.29V50.985C616.012 50.5817 616.158 50.2333 616.452 49.94C616.745 49.6467 617.093 49.5 617.497 49.5H652.367C652.77 49.5 653.118 49.6467 653.412 49.94C653.705 50.2333 653.852 50.5817 653.852 50.985V59.29C653.852 59.6933 653.705 60.0417 653.412 60.335C653.118 60.6283 652.77 60.775 652.367 60.775H642.412V76.725ZM681.66 88.55C675.5 88.55 670.605 87.2117 666.975 84.535C663.382 81.8583 661.585 77.6783 661.585 71.995V50.985C661.585 50.5817 661.732 50.2333 662.025 49.94C662.318 49.6467 662.667 49.5 663.07 49.5H674.565C674.968 49.5 675.317 49.6467 675.61 49.94C675.903 50.2333 676.05 50.5817 676.05 50.985V72.875C676.05 74.3783 676.545 75.5333 677.535 76.34C678.562 77.1467 679.937 77.55 681.66 77.55C683.383 77.55 684.74 77.1467 685.73 76.34C686.757 75.5333 687.27 74.3783 687.27 72.875V50.985C687.27 50.5817 687.417 50.2333 687.71 49.94C688.003 49.6467 688.352 49.5 688.755 49.5H700.25C700.653 49.5 701.002 49.6467 701.295 49.94C701.588 50.2333 701.735 50.5817 701.735 50.985V71.995C701.735 77.6783 699.92 81.8583 696.29 84.535C692.697 87.2117 687.82 88.55 681.66 88.55ZM735.594 50.985C736.144 49.995 736.932 49.5 737.959 49.5H748.024C748.427 49.5 748.775 49.6467 749.069 49.94C749.362 50.2333 749.509 50.5817 749.509 50.985V86.515C749.509 86.9183 749.362 87.2667 749.069 87.56C748.775 87.8533 748.427 88 748.024 88H738.069C737.665 88 737.317 87.8533 737.024 87.56C736.73 87.2667 736.584 86.9183 736.584 86.515V69.465L732.569 77.385C732.459 77.6417 732.202 77.935 731.799 78.265C731.395 78.595 730.882 78.76 730.259 78.76H726.519C725.895 78.76 725.382 78.595 724.979 78.265C724.575 77.935 724.319 77.6417 724.209 77.385L720.194 69.465V86.515C720.194 86.9183 720.047 87.2667 719.754 87.56C719.46 87.8533 719.112 88 718.709 88H708.754C708.35 88 708.002 87.8533 707.709 87.56C707.415 87.2667 707.269 86.9183 707.269 86.515V50.985C707.269 50.5817 707.415 50.2333 707.709 49.94C708.002 49.6467 708.35 49.5 708.754 49.5H718.819C719.845 49.5 720.634 49.995 721.184 50.985L728.389 64.185L735.594 50.985Z" fill="#2C2C2C"/>
<path d="M65.4809 130.962C101.645 130.962 130.962 101.645 130.962 65.4809C130.962 29.3168 101.645 0 65.4809 0C29.3168 0 0 29.3168 0 65.4809C0 101.645 29.3168 130.962 65.4809 130.962Z" fill="#FFD480"/>
<path d="M115.912 120.1L118.546 138.797C118.643 139.482 118.929 140.126 119.371 140.657C119.814 141.188 120.395 141.585 121.051 141.805C121.707 142.024 122.41 142.056 123.083 141.898C123.756 141.74 124.372 141.397 124.861 140.909L140.909 124.861C141.397 124.372 141.74 123.756 141.898 123.083C142.056 122.41 142.024 121.707 141.805 121.051C141.585 120.395 141.188 119.814 140.657 119.371C140.126 118.929 139.482 118.643 138.797 118.546L120.1 115.911C119.532 115.834 118.954 115.89 118.41 116.073C117.867 116.256 117.373 116.562 116.968 116.968C116.562 117.373 116.256 117.867 116.073 118.41C115.89 118.954 115.834 119.532 115.912 120.1V120.1Z" fill="#FFD480"/>
<path d="M78.2165 32.5841C68.7551 33.9879 57.7544 36.9347 57.7544 43.8407C57.7544 56.2602 82.7552 52.8731 83.124 60.0914C83.3423 64.4157 78.0885 67.02 78.9842 75.2997C80.1547 86.131 109.63 86.5148 127.819 85.5664C130.705 76.5793 131.618 67.0752 130.496 57.703C129.374 48.3307 126.242 39.3109 121.316 31.2594C106.439 30.104 91.3247 30.6384 78.2165 32.5841Z" fill="#FFA800"/>
<path d="M47.3785 79.1046C43.0166 76.2443 19.8863 71.5776 0.334961 72.2362C1.36587 82.3493 4.75331 92.0798 10.2254 100.647C23.0212 101.347 44.2134 100.349 50.0694 91.6709C52.2786 88.4117 53.0614 82.8342 47.3785 79.1046Z" fill="#FFA800"/>
<path d="M65.4809 130.965C74.8279 130.98 84.069 128.985 92.578 125.117C79.2552 115.573 49.9 113.488 34.0972 122.96C43.7182 128.227 54.5127 130.98 65.4809 130.965V130.965Z" fill="#FFA800"/>
<path d="M87.866 3.92523C74.2755 -0.992145 59.4439 -1.29767 45.6624 3.05586C58.5034 15.5469 79.4358 11.964 87.866 3.92523Z" fill="#FFA800"/>
</svg>
