<?xml version="1.0" encoding="UTF-8" standalone="no"?>
<!DOCTYPE svg PUBLIC "-//W3C//DTD SVG 1.1//EN" "http://www.w3.org/Graphics/SVG/1.1/DTD/svg11.dtd">
<svg width="100%" height="100%" viewBox="0 0 947 336" version="1.1" xmlns="http://www.w3.org/2000/svg" xmlns:xlink="http://www.w3.org/1999/xlink" xml:space="preserve" xmlns:serif="http://www.serif.com/" style="fill-rule:evenodd;clip-rule:evenodd;">
    <g id="Fish-Time" serif:id="Fish Time" transform="matrix(1,0,0,1,-332,-285)">
        <rect x="332" y="285" width="947" height="336" style="fill:none;"/>
        <clipPath id="_clip1">
            <rect x="332" y="285" width="947" height="336"/>
        </clipPath>
        <g clip-path="url(#_clip1)">
            <g transform="matrix(2.36233,0,0,2.36233,339.728,317.71)">
                <path d="M109.866,56C109.866,85.54 85.839,109.5 56.183,109.5C26.527,109.5 2.5,85.54 2.5,56C2.5,26.461 26.527,2.5 56.183,2.5C85.839,2.5 109.866,26.461 109.866,56Z" style="fill:none;fill-rule:nonzero;stroke:rgb(250,159,130);stroke-width:5px;"/>
            </g>
            <g transform="matrix(2.36233,0,0,2.36233,339.728,317.71)">
                <path d="M48.216,56.457L19.689,66.001L19.689,46.912L48.216,56.457Z" style="fill:rgb(250,159,130);fill-rule:nonzero;"/>
            </g>
            <g transform="matrix(2.36233,0,0,2.36233,339.728,317.71)">
                <path d="M37.601,56.359L87.357,36.209L87.357,76.508L37.601,56.359Z" style="fill:rgb(255,211,196);fill-rule:nonzero;"/>
            </g>
            <g transform="matrix(2.36233,0,0,2.36233,339.728,317.71)">
                <path d="M37.601,56.359L71.719,42.572L71.719,70.145L37.601,56.359Z" style="fill:rgb(250,159,130);fill-rule:nonzero;"/>
            </g>
            <g transform="matrix(2.36233,0,0,2.36233,339.728,317.71)">
                <ellipse cx="80.249" cy="48.603" rx="3.791" ry="3.265" style="fill:rgb(250,159,130);"/>
            </g>
            <g transform="matrix(2.36233,0,0,2.36233,339.728,317.71)">
                <path d="M163.457,40.898L163.457,80L156.716,80L156.716,40.898L163.457,40.898ZM179.409,58.005L179.409,63.35L161.738,63.35L161.738,58.005L179.409,58.005ZM181.638,40.898L181.638,46.27L161.738,46.27L161.738,40.898L181.638,40.898ZM193.293,50.942L193.293,80L186.794,80L186.794,50.942L193.293,50.942ZM186.364,43.315C186.364,42.331 186.687,41.516 187.331,40.872C187.993,40.209 188.907,39.878 190.07,39.878C191.216,39.878 192.12,40.209 192.783,40.872C193.445,41.516 193.776,42.331 193.776,43.315C193.776,44.282 193.445,45.088 192.783,45.732C192.12,46.377 191.216,46.699 190.07,46.699C188.907,46.699 187.993,46.377 187.331,45.732C186.687,45.088 186.364,44.282 186.364,43.315ZM216.684,72.131C216.684,71.487 216.523,70.905 216.201,70.386C215.878,69.849 215.261,69.365 214.348,68.936C213.452,68.506 212.128,68.112 210.373,67.754C208.833,67.414 207.419,67.011 206.13,66.545C204.859,66.062 203.767,65.48 202.854,64.8C201.94,64.12 201.233,63.314 200.732,62.383C200.231,61.452 199.98,60.378 199.98,59.16C199.98,57.978 200.24,56.859 200.759,55.803C201.278,54.747 202.021,53.816 202.988,53.01C203.955,52.205 205.127,51.569 206.506,51.103C207.902,50.638 209.46,50.405 211.179,50.405C213.614,50.405 215.699,50.817 217.436,51.641C219.191,52.446 220.533,53.547 221.464,54.944C222.395,56.322 222.861,57.88 222.861,59.617L216.389,59.617C216.389,58.847 216.192,58.131 215.798,57.468C215.422,56.788 214.849,56.242 214.079,55.83C213.309,55.4 212.342,55.186 211.179,55.186C210.069,55.186 209.147,55.365 208.413,55.723C207.696,56.063 207.159,56.51 206.801,57.065C206.461,57.62 206.291,58.229 206.291,58.892C206.291,59.375 206.381,59.814 206.56,60.208C206.757,60.584 207.079,60.933 207.526,61.255C207.974,61.559 208.583,61.846 209.353,62.114C210.14,62.383 211.125,62.642 212.307,62.893C214.527,63.359 216.433,63.958 218.027,64.692C219.638,65.409 220.874,66.34 221.733,67.485C222.592,68.613 223.022,70.046 223.022,71.782C223.022,73.071 222.744,74.253 222.189,75.327C221.652,76.384 220.865,77.306 219.826,78.093C218.788,78.863 217.543,79.463 216.093,79.893C214.661,80.322 213.05,80.537 211.259,80.537C208.627,80.537 206.398,80.072 204.572,79.141C202.746,78.192 201.359,76.983 200.41,75.515C199.479,74.029 199.013,72.489 199.013,70.896L205.271,70.896C205.342,72.096 205.673,73.053 206.264,73.769C206.873,74.468 207.625,74.978 208.52,75.3C209.433,75.605 210.373,75.757 211.34,75.757C212.504,75.757 213.479,75.605 214.267,75.3C215.055,74.978 215.655,74.548 216.066,74.011C216.478,73.456 216.684,72.83 216.684,72.131ZM235.08,38.75L235.08,80L228.635,80L228.635,38.75L235.08,38.75ZM233.952,64.397L231.857,64.37C231.875,62.365 232.153,60.512 232.69,58.811C233.245,57.11 234.015,55.633 235,54.38C236.002,53.109 237.202,52.133 238.598,51.453C239.995,50.754 241.543,50.405 243.244,50.405C244.676,50.405 245.965,50.602 247.111,50.996C248.275,51.39 249.278,52.026 250.119,52.903C250.961,53.762 251.596,54.89 252.026,56.287C252.473,57.665 252.697,59.348 252.697,61.335L252.697,80L246.198,80L246.198,61.282C246.198,59.885 245.992,58.775 245.581,57.952C245.187,57.128 244.605,56.537 243.835,56.179C243.065,55.803 242.125,55.615 241.015,55.615C239.851,55.615 238.822,55.848 237.927,56.314C237.049,56.779 236.315,57.415 235.725,58.22C235.134,59.026 234.686,59.957 234.382,61.013C234.095,62.07 233.952,63.197 233.952,64.397ZM288.388,40.898L288.388,80L281.701,80L281.701,40.898L288.388,40.898ZM300.661,40.898L300.661,46.27L269.536,46.27L269.536,40.898L300.661,40.898ZM312.102,50.942L312.102,80L305.603,80L305.603,50.942L312.102,50.942ZM305.173,43.315C305.173,42.331 305.495,41.516 306.14,40.872C306.802,40.209 307.715,39.878 308.879,39.878C310.025,39.878 310.929,40.209 311.591,40.872C312.254,41.516 312.585,42.331 312.585,43.315C312.585,44.282 312.254,45.088 311.591,45.732C310.929,46.377 310.025,46.699 308.879,46.699C307.715,46.699 306.802,46.377 306.14,45.732C305.495,45.088 305.173,44.282 305.173,43.315ZM325.664,56.851L325.664,80L319.191,80L319.191,50.942L325.288,50.942L325.664,56.851ZM324.616,64.397L322.414,64.37C322.414,62.365 322.665,60.512 323.166,58.811C323.667,57.11 324.401,55.633 325.368,54.38C326.335,53.109 327.535,52.133 328.967,51.453C330.417,50.754 332.091,50.405 333.989,50.405C335.314,50.405 336.522,50.602 337.614,50.996C338.724,51.372 339.682,51.972 340.488,52.795C341.311,53.619 341.938,54.675 342.368,55.964C342.815,57.253 343.039,58.811 343.039,60.637L343.039,80L336.567,80L336.567,61.201C336.567,59.787 336.352,58.677 335.922,57.871C335.511,57.065 334.911,56.493 334.123,56.152C333.353,55.794 332.431,55.615 331.357,55.615C330.139,55.615 329.101,55.848 328.242,56.314C327.4,56.779 326.711,57.415 326.174,58.22C325.637,59.026 325.243,59.957 324.992,61.013C324.742,62.07 324.616,63.197 324.616,64.397ZM342.636,62.678L339.602,63.35C339.602,61.595 339.843,59.939 340.327,58.381C340.828,56.806 341.553,55.427 342.502,54.246C343.469,53.046 344.659,52.106 346.074,51.426C347.488,50.745 349.108,50.405 350.935,50.405C352.421,50.405 353.745,50.611 354.909,51.023C356.091,51.417 357.093,52.044 357.917,52.903C358.741,53.762 359.367,54.881 359.797,56.26C360.227,57.62 360.441,59.268 360.441,61.201L360.441,80L353.942,80L353.942,61.174C353.942,59.706 353.728,58.569 353.298,57.764C352.886,56.958 352.295,56.403 351.525,56.099C350.756,55.776 349.833,55.615 348.759,55.615C347.757,55.615 346.87,55.803 346.101,56.179C345.349,56.537 344.713,57.048 344.194,57.71C343.675,58.355 343.281,59.097 343.012,59.939C342.762,60.78 342.636,61.694 342.636,62.678ZM379.912,80.537C377.763,80.537 375.821,80.188 374.084,79.49C372.365,78.774 370.897,77.78 369.68,76.509C368.48,75.238 367.558,73.743 366.914,72.024C366.269,70.305 365.947,68.452 365.947,66.465L365.947,65.391C365.947,63.117 366.278,61.058 366.94,59.214C367.603,57.37 368.525,55.794 369.707,54.487C370.888,53.162 372.285,52.151 373.896,51.453C375.507,50.754 377.253,50.405 379.133,50.405C381.21,50.405 383.027,50.754 384.584,51.453C386.142,52.151 387.431,53.136 388.452,54.407C389.49,55.66 390.26,57.155 390.761,58.892C391.28,60.628 391.54,62.544 391.54,64.639L391.54,67.405L369.089,67.405L369.089,62.759L385.148,62.759L385.148,62.249C385.113,61.085 384.88,59.993 384.45,58.972C384.038,57.952 383.403,57.128 382.543,56.502C381.684,55.875 380.538,55.562 379.106,55.562C378.032,55.562 377.074,55.794 376.232,56.26C375.409,56.707 374.72,57.361 374.165,58.22C373.61,59.08 373.18,60.118 372.875,61.335C372.589,62.535 372.446,63.887 372.446,65.391L372.446,66.465C372.446,67.736 372.616,68.918 372.956,70.01C373.314,71.084 373.833,72.024 374.514,72.83C375.194,73.635 376.018,74.271 376.984,74.736C377.951,75.184 379.052,75.408 380.288,75.408C381.845,75.408 383.233,75.094 384.45,74.468C385.668,73.841 386.724,72.955 387.619,71.809L391.03,75.112C390.403,76.025 389.589,76.903 388.586,77.744C387.583,78.568 386.357,79.239 384.907,79.758C383.474,80.278 381.809,80.537 379.912,80.537Z" style="fill:white;fill-rule:nonzero;"/>
            </g>
        </g>
    </g>
</svg>
