<?xml version="1.0" encoding="UTF-8" standalone="no"?><!DOCTYPE svg PUBLIC "-//W3C//DTD SVG 1.1//EN" "http://www.w3.org/Graphics/SVG/1.1/DTD/svg11.dtd"><svg width="100%" height="100%" viewBox="0 0 1457 1368" version="1.1" xmlns="http://www.w3.org/2000/svg" xmlns:xlink="http://www.w3.org/1999/xlink" xml:space="preserve" xmlns:serif="http://www.serif.com/" style="fill-rule:evenodd;clip-rule:evenodd;stroke-linecap:round;stroke-linejoin:round;stroke-miterlimit:1.5;"><rect id="Standalone-Giraffe" serif:id="Standalone Giraffe" x="0.618" y="0.175" width="1456.1" height="1367.6" style="fill:none;"/><g id="Giraffe"><g id="Giraffe1" serif:id="Giraffe"><path d="M1081.07,146.7c-20.096,-7.643 -23.202,-18.898 -4.851,-13.248c29.407,-9.662 57.532,-14.51 87.549,-12.542c9.6,-1.011 18.88,-2.792 27.823,-5.387c13.987,-6.513 28.492,-8.544 42.831,-11.577c-15.75,-4.099 -73.224,-8.633 -84.385,-10.353c-2.362,-1.111 -19.291,12.58 -29.578,22.976c-2.617,-0.1 -3.632,-2.585 -3.198,-6.137c10.879,-11.669 21.602,-21.658 31.736,-25.236c24.994,3.341 104.478,10.303 117.186,13.765c0.827,0.225 0.347,6.892 -0.627,10.007c-0.929,2.97 -4.772,4.579 -5.219,8.689c-1.051,9.658 -9.958,36.141 -31.233,42.982c-26.426,8.497 -42.654,-4.02 -43.926,-33.74l-13.165,2.16c-2.966,33.221 -19.327,48.135 -44.11,52.142c-42.068,6.802 -36.171,-21.268 -46.833,-34.501Z" style="stroke:#000;stroke-width:2.5px;"/><path d="M1218.07,107.264l-17.595,52.669c-9.212,-5.203 -14.588,-16.435 -15.298,-33.034l-3.024,0.497l3.695,-10.33c1.93,-0.478 3.843,-0.992 5.742,-1.543c8.682,-4.043 17.563,-6.358 26.48,-8.259Z" style="fill:#8a8a8a;stroke:#000;stroke-width:2.5px;"/><g><path d="M163.051,817.115c248.008,-126.235 495.161,-290.955 799.395,-624.567l102.289,71.512c-115.057,71.963 -421.19,515.659 -493.86,640.902c-18.091,31.178 55.602,92.673 54.722,117.077c-1.531,42.497 -61.771,137.975 -61.771,137.975l-415.158,121.626l-32.577,-465.814l46.96,1.289Z" style="fill:#fcd681;"/><path d="M948.15,213.041c-0,0 -56.034,-25.923 -57.74,-33.088c-1.705,-7.164 47.508,-9.898 47.508,-9.898c-0,0 29.224,3.829 41.05,-5.316c14.165,-10.953 34.764,-15.183 42.208,-25.669c7.202,-10.148 6.442,-26.959 2.453,-37.252c-3.99,-10.293 -8.697,-12.029 -15.261,-14.529c-15.174,-5.781 -9.17,-27.514 2.529,-28.806c4.637,-3.552 19.535,7.471 21.221,10.518c2.577,4.658 9.38,-8.244 14.604,-7.214c6.065,1.196 9.017,8.739 13.285,13.34c4.165,4.489 12.521,0.772 15.747,11.83c7.848,26.895 18.638,26.298 21.4,26.259c21.534,-0.305 29.207,-7.89 39.286,-6.534c19.613,2.639 28.846,20.972 44.455,29.491c28.506,15.558 116.298,33.905 142.718,50.508c9.409,5.913 11.066,13.021 9.573,20.375c-1.914,9.431 -19.439,31.346 -32.4,36.207c-12.961,4.862 -36.127,-9.143 -51.243,-6.76c-23.1,3.642 -60.112,20.953 -85.704,26.384c-21.626,4.59 -51.024,4.476 -67.274,4.133c-10.624,-0.223 -22.174,0.569 -31.878,-3.958c-49.752,-23.212 -93.59,-56.956 -116.537,-50.021Z" style="fill:#fcd681;"/></g><path d="M1180.08,135.718c0.267,0.154 0.538,0.306 0.812,0.455c19.518,10.652 66.83,22.613 103.21,34.427l24.637,68.089c-2.725,2.028 -5.427,3.626 -7.956,4.574c-12.961,4.862 -36.127,-9.143 -51.243,-6.76c-21.707,3.422 -55.699,18.915 -80.954,25.277l-72.591,-32.148l25.558,37.39c-9.568,0.239 -18.371,0.138 -24.991,-0.002c-10.624,-0.223 -22.174,0.569 -31.878,-3.958c-1.438,-0.671 -2.87,-1.351 -4.292,-2.036l4.34,3.034c-23.874,14.933 -55.976,45.87 -92.537,86.676l-50.841,-18.09l32.884,38.506c-32.772,37.895 -68.408,82.418 -104.434,129.55l-95.652,-27.704l65.262,67.944c-31.811,42.601 -63.4,86.375 -93.085,128.584l-205.525,-64.377l144.053,153.49c-28.697,42.449 -53.565,80.542 -72.327,110.582l-165.124,-55.041l153.079,135.119c17.097,27.766 45.659,57.493 45.109,72.74c-0.583,16.187 -9.684,40.061 -20.73,63.417l-355.648,-313.921c38.729,-21.327 77.6,-43.954 116.86,-68.393l187.477,62.492l-107.494,-114.536c49.581,-33.703 99.95,-70.702 151.542,-111.958l144.339,45.213l-87.979,-91.595c38.135,-32.274 76.986,-66.966 116.725,-104.45l113.175,32.78l-66.423,-77.78c32.917,-32.311 66.485,-66.589 100.767,-103.008l107.002,38.075l-73.497,-107.525c9.227,0 20.818,-1.134 27.255,-6.111c14.165,-10.953 34.764,-15.183 42.208,-25.669c6.733,-9.486 6.507,-24.795 3.19,-35.16l171.727,76.053l-16.01,-44.245Z" style="fill:#914728;"/><path d="M1331.65,211.403c-4.945,10.6 -19.619,27.644 -30.86,31.86c-12.961,4.862 -36.127,-9.143 -51.243,-6.76c-23.1,3.642 -60.112,20.953 -85.704,26.384c-21.626,4.59 -51.024,4.476 -67.274,4.133c-10.624,-0.223 -22.174,0.569 -31.878,-3.958c-1.438,-0.671 -2.87,-1.351 -4.292,-2.036l4.34,3.034c-0.76,0.475 -1.527,0.967 -2.294,1.469l-2.768,-4.904c0,0 105.079,-17.185 137.217,-24.001c19.687,-4.176 40.002,-16.683 57.636,-17.983c16.365,-1.206 34.917,11.747 48.164,10.184c9.611,-1.134 23.47,-12.581 28.956,-17.422Z" style="fill-opacity:0.23;"/><path d="M1174.31,131.814c0.111,0.085 0.221,0.169 0.331,0.254l0.314,0.237c-0.724,5.248 -6.271,42.712 -17.912,50.992c-12.743,9.064 -46.222,6.552 -60.658,2.884c-12.256,-3.115 -10.368,-27.197 -20.859,-33.403c-9.733,-5.757 -45.132,-15.912 -51.991,-17.851c2.223,-4.907 3.134,-10.705 3.087,-16.403l62.979,20.9l84.646,-7.659l0.063,0.049Z" style="fill-opacity:0.23;"/><path d="M1172.13,129.039l-0.12,0.02c-2.966,33.221 -19.327,48.135 -44.11,52.142c-42.068,6.802 -36.171,-21.268 -46.833,-34.501c-20.096,-7.643 -39.744,-15.868 -56.438,-24.964c-8.176,7.815 -11.49,11.272 -15.208,12.31c-1.885,0.526 -3.355,-5.466 -3.355,-5.466c0,0 13.384,-17.662 15.709,-17.934c18.059,8.617 36.09,17.156 54.441,22.806c28.937,-9.508 56.632,-14.354 86.11,-12.631l9.804,8.218Z" style="stroke:#000;stroke-width:2.5px;"/><path d="M1150.35,120.478l-27.286,61.377c-15.052,1.604 -23.104,-1.864 -28.066,-7.393l22.825,-51.342c10.755,-1.714 21.543,-2.629 32.527,-2.642Z" style="fill:#8a8a8a;stroke:#000;stroke-width:2.5px;"/><path d="M572.504,934.359l-3.572,-0.965c-77.51,-123.633 347.881,-542.047 421.825,-706.065l69.742,33.727l4.191,3.012l-6.02,4.005c-119.393,83.032 -416.368,513.787 -487.795,636.889c-4.72,8.134 -3.192,18.332 1.629,29.397Z" style="fill-opacity:0.25;"/><path d="M1064.71,264.063c0.246,-0.192 0.955,-0.606 0.955,-0.606l-6.405,-2.976l3.114,5.111c0,0 1.851,-1.151 2.336,-1.529Z" style="fill:#6d351e;"/></g></g></svg>