<?xml version="1.0" encoding="UTF-8" standalone="no"?>
<!DOCTYPE svg PUBLIC "-//W3C//DTD SVG 1.1//EN" "http://www.w3.org/Graphics/SVG/1.1/DTD/svg11.dtd">
<svg width="100%" height="100%" viewBox="0 0 567 200" version="1.1" xmlns="http://www.w3.org/2000/svg" xmlns:xlink="http://www.w3.org/1999/xlink" xml:space="preserve" xmlns:serif="http://www.serif.com/" style="fill-rule:evenodd;clip-rule:evenodd;stroke-linejoin:round;stroke-miterlimit:2;">
    <path d="M195.68,75C197.68,73.607 200.38,72.913 203.78,72.92C206.827,72.97 209.844,73.524 212.71,74.56C215.941,75.682 219.072,77.073 222.07,78.72L228.07,66.57C224.65,64.347 220.994,62.509 217.17,61.09C213.123,59.563 207.847,58.797 201.34,58.79C196.766,58.909 192.276,60.05 188.2,62.13C184.568,63.989 181.516,66.813 179.38,70.29C177.233,73.975 176.152,78.186 176.26,82.45C175.966,88.897 178.864,95.092 184,99C186.291,100.782 188.773,102.305 191.4,103.54C194.03,104.79 196.58,105.88 199.06,106.83C201.099,107.592 203.062,108.546 204.92,109.68C206.54,110.63 207.984,111.851 209.19,113.29C210.217,114.518 210.78,116.069 210.78,117.67C210.897,119.677 210.209,121.65 208.87,123.15C207.538,124.489 205.875,125.452 204.05,125.94C202.181,126.478 200.245,126.754 198.3,126.76C196.189,126.731 194.089,126.439 192.05,125.89C187.403,124.653 183.024,122.572 179.13,119.75L172.13,132.13C177.61,135.938 183.821,138.567 190.37,139.85C193.453,140.461 196.587,140.773 199.73,140.78C205.73,140.78 210.767,139.703 214.84,137.55C218.67,135.638 221.894,132.698 224.15,129.06C226.249,125.633 227.35,121.688 227.33,117.67C227.42,114.328 226.863,111 225.69,107.87C224.697,105.37 223.207,103.098 221.31,101.19C219.479,99.396 217.393,97.883 215.12,96.7C212.854,95.515 210.516,94.473 208.12,93.58C205.604,92.646 203.138,91.585 200.73,90.4C198.588,89.398 196.628,88.046 194.93,86.4C193.509,85.088 192.694,83.244 192.68,81.31C192.512,78.83 193.651,76.435 195.68,75Z" style="fill:rgb(64,0,208);fill-rule:nonzero;"/>
    <path d="M260.19,70.98L244.85,70.98L244.85,91.79L237.41,91.79L237.41,103.72L244.85,103.72L244.85,139.87L260.19,139.87L260.19,103.72L271.79,103.72L271.79,91.79L260.19,91.79L260.19,70.98Z" style="fill:rgb(64,0,208);fill-rule:nonzero;"/>
    <path d="M324.31,95.67C319.89,91.67 314.25,89.67 307.39,89.67C302.534,89.601 297.741,90.79 293.48,93.12C289.419,95.309 285.978,98.492 283.48,102.37C281,106.248 279.707,110.767 279.76,115.37C279.677,120.049 280.792,124.673 283,128.8C285.123,132.676 288.345,135.839 292.26,137.89C296.855,140.207 301.957,141.338 307.1,141.18C309.942,141.146 312.764,140.705 315.48,139.87C318.362,139.02 321.136,137.842 323.75,136.36L316.92,125C315.447,125.92 313.886,126.69 312.26,127.3C310.703,127.886 309.053,128.184 307.39,128.18C305.177,128.213 302.992,127.683 301.04,126.64C299.834,125.998 298.765,125.129 297.89,124.08L332.89,112.95C331.583,105.41 328.723,99.65 324.31,95.67ZM296.31,107.67C297.153,105.819 298.524,104.256 300.25,103.18C302.059,102.093 304.14,101.541 306.25,101.59C309.25,101.59 311.49,102.31 312.99,103.73C314.357,105.018 315.387,106.621 315.99,108.4L294.99,115.48L294.99,114.48C294.921,112.161 295.358,109.854 296.27,107.72L296.31,107.67Z" style="fill:rgb(64,0,208);fill-rule:nonzero;"/>
    <path d="M364.5,114.74L353.28,92L335.1,92L363.79,140.85L364.23,140.85L391.39,92L374.31,92L364.5,114.74Z" style="fill:rgb(64,0,208);fill-rule:nonzero;"/>
    <path d="M439.52,95.67C435.113,91.67 429.473,89.67 422.6,89.67C417.744,89.603 412.952,90.791 408.69,93.12C404.628,95.308 401.187,98.491 398.69,102.37C396.203,106.245 394.906,110.766 394.96,115.37C394.865,120.021 395.96,124.62 398.14,128.73C400.259,132.606 403.478,135.769 407.39,137.82C411.985,140.136 417.087,141.267 422.23,141.11C425.072,141.076 427.894,140.635 430.61,139.8C433.493,138.953 436.268,137.776 438.88,136.29L432.13,125C430.661,125.921 429.104,126.692 427.48,127.3C425.92,127.886 424.266,128.184 422.6,128.18C420.387,128.211 418.203,127.681 416.25,126.64C415.048,125.993 413.979,125.124 413.1,124.08L448.1,112.95C446.807,105.41 443.947,99.65 439.52,95.67ZM411.52,107.67C412.36,105.817 413.731,104.254 415.46,103.18C417.268,102.09 419.35,101.539 421.46,101.59C424.46,101.59 426.7,102.31 428.19,103.73C429.56,105.015 430.59,106.62 431.19,108.4L410.19,115.48L410.19,114.48C410.122,112.159 410.566,109.851 411.49,107.72L411.52,107.67Z" style="fill:rgb(64,0,208);fill-rule:nonzero;"/>
    <path d="M503.92,93.7C500.778,90.996 496.733,89.568 492.59,89.7C488.645,89.569 484.739,90.535 481.31,92.49C478.402,94.225 475.991,96.681 474.31,99.62L473.2,92L459.29,92L459.29,139.86L474.63,139.86L474.63,120.36C474.574,117.271 475.054,114.195 476.05,111.27C476.839,108.867 478.234,106.707 480.1,105C481.782,103.491 483.971,102.67 486.23,102.7C488.723,102.7 490.497,103.337 491.55,104.61C492.667,106.073 493.262,107.869 493.24,109.71L493.24,139.83L508.58,139.83L508.58,104.05C508.62,100.086 506.915,96.298 503.92,93.7Z" style="fill:rgb(64,0,208);fill-rule:nonzero;"/>
    <path d="M544.17,91.79L544.17,70.98L528.84,70.98L528.84,91.79L521.39,91.79L521.39,103.72L528.84,103.72L528.84,139.87L544.17,139.87L544.17,103.72L555.78,103.72L555.78,91.79L544.17,91.79Z" style="fill:rgb(64,0,208);fill-rule:nonzero;"/>
    <path d="M41.9,140.5C41.39,143.32 42.66,145.64 45,146.26C49,147.32 68,150.18 82.31,146.98C95.43,144.05 107.7,139.65 119.04,124.67C125.48,116.15 130.04,107.14 130.04,92.57C130,82 126.75,70.14 121.91,62C116.548,52.716 108.619,45.173 99.08,40.28C86.72,33.78 73.08,31.28 60.49,33.02C49.481,34.541 39.11,39.095 30.54,46.17C21.707,53.571 14.913,63.111 10.81,73.88C4.727,90.454 6.368,108.909 15.28,124.15C25.22,141.15 29.66,146.68 31.58,158.05C27.1,158.05 13.69,155.5 10.27,153.92C13.44,150.45 16.66,148.59 18.36,146.99C19.991,145.389 20.16,142.789 18.75,140.99C17.913,139.865 16.59,139.201 15.188,139.201C14.222,139.201 13.281,139.517 12.51,140.1C9.89,141.89 2.35,146.44 1.13,153.38C0.64,156.15 2.29,158.98 3.77,160.38C6.72,163.2 14.09,164.76 19.3,165.6C24.51,166.44 33.4,167.98 37.09,167.41C39.75,166.99 40.63,164.84 40.78,162.91C40.989,158.861 40.519,154.804 39.39,150.91C37.49,143.64 27.94,127.29 23.95,120.91C17.85,111.12 13.3,92.82 19.22,77.64C25.09,62.64 37.65,47.75 54.59,43.46C71.53,39.17 89,42.08 102.8,53.31C116.6,64.54 120.32,80.24 120.94,91.92C121.69,106.29 111.76,124.57 98.33,131.48C80.94,140.42 67.92,141.72 48.17,137.38C44.71,136.62 42.27,138.49 41.9,140.5Z" style="fill:rgb(64,0,208);fill-rule:nonzero;"/>
</svg>
